# xmcd
#
# Track frame offsets: 
#        150
#        13024
#        26057
#        39682
#        51065
#        65708
#        75433
#        88117
#        99745
#        108975
#        120287
#        133649
#        147571
#        163406
#        181424
#        193371
#
# Disc length: 2738 seconds
#
# Revision: 1
# Processed by: cddbd v1.5.2PL0 Copyright (c) Steve Scherf et al.
# Submitted via: ExactAudioCopy v1.3
#
DISCID=e60ab010
DTITLE=Frank Sinatra - Frank Sinatra ‎– The Platinum Collection [CD 2)
DYEAR=2004
DGENRE=Swing
TTITLE0=Young At Heart
TTITLE1=I Get A Kick Out Of You
TTITLE2=Learnin' The Blues
TTITLE3=My Funny Valentine
TTITLE4=The Lady Is A Tramp
TTITLE5=Let's Get Away From It All
TTITLE6=South Of The Border
TTITLE7=It Happened In Monterey
TTITLE8=You'd Be So Nice To Come Home To
TTITLE9=Come Dance With Me
TTITLE10=September In The Rain
TTITLE11=Cheek To Cheek
TTITLE12=Moonlight In Vermont
TTITLE13=Night And Day
TTITLE14=The Sunny Side Of The Street
TTITLE15=I Could Have Danced All Night
EXTD=
EXTT0=
EXTT1=
EXTT2=
EXTT3=
EXTT4=
EXTT5=
EXTT6=
EXTT7=
EXTT8=
EXTT9=
EXTT10=
EXTT11=
EXTT12=
EXTT13=
EXTT14=
EXTT15=
PLAYORDER=
